<?xml version="1.0" encoding="UTF-8"?>
<!-- Generator: Adobe Illustrator 22.1.0, SVG Export Plug-In . SVG Version: 6.00 Build 0)  -->
<svg version="1.1" id="Capa_1" xmlns="http://www.w3.org/2000/svg" xmlns:xlink="http://www.w3.org/1999/xlink" x="0px" y="0px" viewBox="0 0 280.1 280.1" style="enable-background:new 0 0 280.1 280.1;" xml:space="preserve">
<style type="text/css">
	.st0{fill:#FFFFFF;}
</style>
<g>
	<g>
		<g>
			<path class="st0" d="M44.8,235.3c12.4,12.4,26.8,22.1,42.8,28.9c16.6,7,34.3,10.6,52.4,10.6c18.2,0,35.8-3.6,52.4-10.6     c16-6.8,30.5-16.5,42.8-28.9c12.4-12.4,22.1-26.8,28.9-42.8c7-16.6,10.6-34.3,10.6-52.4c0-18.2-3.6-35.8-10.6-52.4     c-6.8-16-16.5-30.5-28.9-42.8c-12.4-12.4-26.8-22.1-42.8-28.9c-16.6-7-34.3-10.6-52.4-10.6c-18.2,0-35.8,3.6-52.4,10.6     c-16,6.8-30.5,16.5-42.8,28.9S22.7,71.6,15.9,87.6c-7,16.6-10.6,34.3-10.6,52.4c0,18.2,3.6,35.8,10.6,52.4     C22.7,208.5,32.4,222.9,44.8,235.3z M140,25c63.5,0,115.1,51.5,115.1,115.1c0,63.5-51.5,115.1-115.1,115.1S25,203.6,25,140     C25,76.5,76.5,25,140,25z"/>
			<path class="st0" d="M140,275c-18.2,0-35.9-3.6-52.5-10.6c-16.1-6.8-30.5-16.5-42.9-28.9c-12.4-12.4-22.1-26.8-28.9-42.9     c-7-16.7-10.6-34.3-10.6-52.5c0-18.2,3.6-35.9,10.6-52.5C22.5,71.4,32.2,57,44.6,44.6s26.8-22.1,42.9-28.9     c16.7-7,34.3-10.6,52.5-10.6c18.2,0,35.9,3.6,52.5,10.6c16.1,6.8,30.5,16.5,42.9,28.9c12.4,12.4,22.1,26.8,28.9,42.9     c7,16.7,10.6,34.3,10.6,52.5c0,18.2-3.6,35.9-10.6,52.5c-6.8,16.1-16.5,30.5-28.9,42.9c-12.4,12.4-26.8,22.1-42.9,28.9     C175.9,271.4,158.3,275,140,275z M140,5.5c-18.1,0-35.8,3.6-52.4,10.6c-16,6.8-30.4,16.5-42.7,28.8c-12.3,12.3-22,26.7-28.8,42.7     c-7,16.6-10.6,34.2-10.6,52.4c0,18.1,3.6,35.8,10.6,52.4c6.8,16,16.5,30.4,28.8,42.7c12.3,12.3,26.7,22,42.7,28.8     c16.6,7,34.2,10.6,52.4,10.6s35.8-3.6,52.4-10.6c16-6.8,30.4-16.5,42.7-28.8c12.3-12.3,22-26.7,28.8-42.7     c7-16.6,10.6-34.2,10.6-52.4c0-18.1-3.6-35.8-10.6-52.4c-6.8-16-16.5-30.4-28.8-42.7c-12.3-12.3-26.7-22-42.7-28.8     C175.8,9.1,158.2,5.5,140,5.5z M140,255.3c-30.8,0-59.7-12-81.5-33.8c-21.8-21.8-33.8-50.7-33.8-81.5s12-59.7,33.8-81.5     c21.8-21.8,50.7-33.8,81.5-33.8s59.7,12,81.5,33.8c21.8,21.8,33.8,50.7,33.8,81.5s-12,59.7-33.8,81.5     C199.8,243.3,170.8,255.3,140,255.3z M140,25.2c-30.7,0-59.5,11.9-81.2,33.6C37.2,80.5,25.2,109.4,25.2,140s11.9,59.5,33.6,81.2     c21.7,21.7,50.5,33.6,81.2,33.6s59.5-11.9,81.2-33.6c21.7-21.7,33.6-50.5,33.6-81.2c0-30.7-11.9-59.5-33.6-81.2     C199.6,37.2,170.7,25.2,140,25.2z"/>
		</g>
		<g>
			<path class="st0" d="M90,190.1c1.9,1.9,4.4,2.9,7,2.9c2.5,0,5-1,7-2.9L140,154l36.2,36.2c1.9,1.9,4.4,2.9,7,2.9c2.5,0,5-1,7-2.9     c3.8-3.8,3.8-10.1,0-13.9L154,140l36.2-36.2c3.8-3.8,3.8-10.1,0-13.9c-3.8-3.8-10.1-3.8-13.9,0L140,126.1L103.9,90     c-3.8-3.8-10.1-3.8-13.9,0c-3.8,3.8-3.8,10.1,0,13.9l36.2,36.2L90,176.2C86.1,180,86.1,186.3,90,190.1z"/>
			<path class="st0" d="M183.1,193.2c-2.7,0-5.2-1-7.1-2.9l-36-36l-36,36c-1.9,1.9-4.4,2.9-7.1,2.9s-5.2-1-7.1-2.9     c-1.9-1.9-2.9-4.4-2.9-7.1c0-2.7,1-5.2,2.9-7.1l36-36l-36-36c-3.9-3.9-3.9-10.3,0-14.2c1.9-1.9,4.4-2.9,7.1-2.9     c2.7,0,5.2,1,7.1,2.9l36,36l36-36c1.9-1.9,4.4-2.9,7.1-2.9c2.7,0,5.2,1,7.1,2.9c1.9,1.9,2.9,4.4,2.9,7.1c0,2.7-1,5.2-2.9,7.1     l-36,36l36,36c1.9,1.9,2.9,4.4,2.9,7.1c0,2.7-1,5.2-2.9,7.1C188.4,192.2,185.8,193.2,183.1,193.2z M140,153.6l36.3,36.3     c1.8,1.8,4.2,2.8,6.8,2.8c2.6,0,5-1,6.8-2.8c1.8-1.8,2.8-4.2,2.8-6.8c0-2.6-1-5-2.8-6.8L153.6,140l36.3-36.3     c1.8-1.8,2.8-4.2,2.8-6.8c0-2.6-1-5-2.8-6.8c-1.8-1.8-4.2-2.8-6.8-2.8c-2.6,0-5,1-6.8,2.8L140,126.5l-36.3-36.3     c-1.8-1.8-4.2-2.8-6.8-2.8c-2.6,0-5,1-6.8,2.8c-3.7,3.7-3.7,9.8,0,13.6l36.3,36.3l-36.3,36.3c-1.8,1.8-2.8,4.2-2.8,6.8     c0,2.6,1,5,2.8,6.8c1.8,1.8,4.2,2.8,6.8,2.8s5-1,6.8-2.8L140,153.6z"/>
		</g>
	</g>
</g>
</svg>