<?xml version="1.0" encoding="utf-8"?>
<!-- Generator: Adobe Illustrator 23.0.5, SVG Export Plug-In . SVG Version: 6.00 Build 0)  -->
<svg version="1.1" id="Capa_1" xmlns="http://www.w3.org/2000/svg" xmlns:xlink="http://www.w3.org/1999/xlink" x="0px" y="0px"
	 viewBox="0 0 512 512" style="enable-background:new 0 0 512 512;" xml:space="preserve">
<style type="text/css">
	.st0{fill:#FFFFFF;}
</style>
<g>
	<g>
		<path class="st0" d="M503.4,228.88L273.68,19.57c-10.08-9.19-25.29-9.19-35.37,0L8.6,228.89c-8.08,7.36-10.74,18.7-6.8,28.89
			c3.95,10.19,13.56,16.77,24.48,16.77h36.69v209.72c0,8.32,6.74,15.06,15.06,15.06h125.91c8.32,0,15.06-6.74,15.06-15.06V356.93h74
			v127.34c0,8.32,6.74,15.06,15.06,15.06h125.91c8.32,0,15.06-6.74,15.06-15.06V274.55h36.7c10.93,0,20.54-6.58,24.48-16.77
			C514.15,247.59,511.48,236.25,503.4,228.88z"/>
	</g>
</g>
<g>
	<g>
		<path class="st0" d="M445.09,42.73H343.97l116.18,105.64V57.79C460.15,49.47,453.41,42.73,445.09,42.73z"/>
	</g>
</g>
</svg>
